<svg width="360" height="60" viewBox="0 0 360 60" fill="none" xmlns="http://www.w3.org/2000/svg">
<ellipse cx="270.08" cy="30" rx="30.0804" ry="30" fill="#37C581" fill-opacity="0.5"/>
<path d="M270.446 19.3968V40.4883M270.446 19.3968L271.822 18.8808C274.951 17.7064 278.442 17.7064 281.571 18.8808C282.402 19.1924 282.946 19.9471 282.946 20.7863V38.0997C282.946 39.252 281.706 40.04 280.565 39.612C278.082 38.68 275.311 38.68 272.827 39.612L270.464 40.4991C270.455 40.5022 270.446 40.4966 270.446 40.4883M270.446 19.3968L269.071 18.8808C265.942 17.7064 262.451 17.7064 259.322 18.8808C258.491 19.1924 257.946 19.9471 257.946 20.7863V38.0997C257.946 39.252 259.187 40.04 260.327 39.612C262.811 38.68 265.582 38.68 268.065 39.612L270.429 40.4991C270.437 40.5022 270.446 40.4966 270.446 40.4883" stroke="white" stroke-width="1.5"/>
<circle cx="210" cy="30" r="30" fill="#37C581" fill-opacity="0.5"/>
<path d="M198.194 40.0246L198.902 40.2745L198.902 40.2745L198.194 40.0246ZM199.726 41.5559L199.976 42.263L199.976 42.263L199.726 41.5559ZM203.557 40.2022L203.807 40.9093L203.557 40.2022ZM204.421 40.2868L204.791 39.6343L204.421 40.2868ZM199.592 36.0683L200.3 36.3182L199.592 36.0683ZM198.852 29.4491C198.852 22.9879 204.09 17.75 210.551 17.75V16.25C203.261 16.25 197.352 22.1594 197.352 29.4491H198.852ZM200.188 34.8844C199.335 33.2612 198.852 31.4126 198.852 29.4491H197.352C197.352 31.6616 197.897 33.749 198.86 35.5823L200.188 34.8844ZM198.902 40.2745L200.3 36.3182L198.885 35.8184L197.487 39.7748L198.902 40.2745ZM199.476 40.8487C199.119 40.9748 198.776 40.6312 198.902 40.2745L197.487 39.7748C196.941 41.3203 198.43 42.8092 199.976 42.263L199.476 40.8487ZM203.307 39.495L199.476 40.8487L199.976 42.263L203.807 40.9093L203.307 39.495ZM210.551 41.1481C208.455 41.1481 206.49 40.5978 204.791 39.6343L204.051 40.9393C205.97 42.0272 208.189 42.6481 210.551 42.6481V41.1481ZM222.25 29.4491C222.25 35.9103 217.012 41.1481 210.551 41.1481V42.6481C217.841 42.6481 223.75 36.7387 223.75 29.4491H222.25ZM210.551 17.75C217.012 17.75 222.25 22.9879 222.25 29.4491H223.75C223.75 22.1594 217.841 16.25 210.551 16.25V17.75ZM203.807 40.9093C203.873 40.8858 203.963 40.8892 204.051 40.9393L204.791 39.6343C204.352 39.3856 203.812 39.3166 203.307 39.495L203.807 40.9093ZM198.86 35.5823C198.906 35.6686 198.908 35.7543 198.885 35.8184L200.3 36.3182C200.471 35.8328 200.414 35.3139 200.188 34.8844L198.86 35.5823Z" fill="white"/>
<circle cx="204.389" cy="29.5111" r="1.55613" fill="white"/>
<circle cx="210.613" cy="29.5111" r="1.55613" fill="white"/>
<circle cx="216.838" cy="29.5111" r="1.55613" fill="white"/>
<circle cx="330" cy="30" r="30" fill="#37C581" fill-opacity="0.5"/>
<rect x="318" y="17" width="10.2941" height="10.2941" rx="2.5" stroke="white" stroke-width="1.5"/>
<rect x="318" y="31.7059" width="10.2941" height="10.2941" rx="2.5" stroke="white" stroke-width="1.5"/>
<rect x="332.706" y="17" width="10.2941" height="10.2941" rx="2.5" stroke="white" stroke-width="1.5"/>
<rect x="332.706" y="31.7059" width="10.2941" height="10.2941" rx="2.5" stroke="white" stroke-width="1.5"/>
<circle cx="150" cy="30" r="30" fill="#37C581" fill-opacity="0.5"/>
<path d="M158.105 34.4211V38.3158C158.105 40.5249 156.314 42.3158 154.105 42.3158H145C142.791 42.3158 141 40.5249 141 38.3158V20C141 17.7909 142.791 16 145 16H154.105C156.314 16 158.105 17.7909 158.105 20V23.8947" stroke="white" stroke-width="1.5" stroke-linecap="round"/>
<path d="M162.053 33.1053L165.293 29.865C165.683 29.4745 165.683 28.8413 165.293 28.4508L162.053 25.2105" stroke="white" stroke-width="1.5" stroke-linecap="round"/>
<path d="M164.684 29.1579L148.895 29.1579" stroke="white" stroke-width="1.5" stroke-linecap="round"/>
<ellipse cx="90.0804" cy="30" rx="30.0804" ry="30" fill="#37C581" fill-opacity="0.5"/>
<rect x="77.9464" y="22.25" width="25" height="17.5" rx="5" stroke="white" stroke-width="1.5"/>
<path d="M89.6964 21.625C89.6964 22.0392 90.0322 22.375 90.4464 22.375C90.8606 22.375 91.1964 22.0392 91.1964 21.625H89.6964ZM87.4464 16C87.4464 15.5858 87.1106 15.25 86.6964 15.25C86.2822 15.25 85.9464 15.5858 85.9464 16H87.4464ZM91.1964 21.625V21H89.6964V21.625H91.1964ZM87.4464 17.25V16H85.9464V17.25H87.4464ZM88.5714 18.375C87.9501 18.375 87.4464 17.8713 87.4464 17.25H85.9464C85.9464 18.6997 87.1217 19.875 88.5714 19.875V18.375ZM91.1964 21C91.1964 19.5503 90.0212 18.375 88.5714 18.375V19.875C89.1927 19.875 89.6964 20.3787 89.6964 21H91.1964Z" fill="white"/>
<circle cx="97.9464" cy="29.125" r="1.25" fill="white"/>
<circle cx="95.4464" cy="32.875" r="1.25" fill="white"/>
<path d="M85.4464 33.5L85.4464 28.5" stroke="white" stroke-width="1.5" stroke-linecap="round" stroke-linejoin="round"/>
<path d="M82.9464 31H87.9464" stroke="white" stroke-width="1.5" stroke-linecap="round" stroke-linejoin="round"/>
<circle cx="30" cy="30" r="30" fill="#37C581" fill-opacity="0.5"/>
<circle cx="28.8108" cy="26.8108" r="10.8108" stroke="white" stroke-width="1.5" stroke-linecap="round" stroke-linejoin="round"/>
<path d="M36.2433 34.8621L43 41.6189" stroke="white" stroke-width="1.5" stroke-linecap="round" stroke-linejoin="round"/>
</svg>
